<?xml version="1.0" standalone="no"?>
<!DOCTYPE svg PUBLIC "-//W3C//DTD SVG 20010904//EN"
 "http://www.w3.org/TR/2001/REC-SVG-20010904/DTD/svg10.dtd">
<svg version="1.0" xmlns="http://www.w3.org/2000/svg"
 width="457.000000pt" height="457.000000pt" viewBox="0 0 457.000000 457.000000"
 preserveAspectRatio="xMidYMid meet">
<metadata>
Created by potrace 1.14, written by Peter Selinger 2001-2017
</metadata>
<g transform="translate(0.000000,457.000000) scale(0.100000,-0.100000)"
fill="#000000" stroke="none">
<path d="M2237 4554 c-1 -1 -47 -5 -102 -9 -151 -10 -195 -16 -285 -36 -25 -5
-54 -11 -65 -14 -91 -20 -206 -52 -255 -72 -8 -4 -18 -7 -22 -8 -5 -2 -10 -4
-13 -5 -3 -1 -8 -3 -12 -4 -5 -1 -24 -9 -43 -18 -19 -8 -64 -28 -100 -43 -36
-15 -70 -31 -75 -35 -6 -5 -37 -23 -70 -40 -212 -111 -516 -362 -643 -530 -15
-19 -33 -41 -40 -49 -29 -31 -92 -118 -92 -129 0 -5 -4 -12 -8 -14 -26 -10
-162 -260 -215 -393 -20 -49 -41 -103 -48 -120 -7 -16 -11 -34 -10 -39 1 -4
-3 -14 -9 -21 -6 -7 -10 -17 -9 -21 1 -5 -3 -21 -9 -37 -7 -15 -14 -38 -16
-50 -3 -12 -7 -31 -10 -42 -15 -64 -38 -174 -41 -195 -1 -14 -6 -56 -11 -95
-16 -127 -9 -483 10 -585 3 -14 7 -41 10 -60 29 -182 116 -454 192 -602 8 -15
15 -31 15 -35 0 -5 6 -15 13 -23 6 -8 22 -35 35 -60 32 -60 121 -194 132 -198
5 -2 9 -9 9 -16 0 -26 188 -238 316 -356 263 -244 635 -441 989 -524 105 -25
117 -28 160 -32 22 -3 46 -7 54 -9 53 -19 476 -28 596 -12 120 15 212 34 265
54 8 4 19 5 23 4 5 -1 77 21 160 49 160 53 361 147 462 215 33 22 72 46 86 53
15 8 37 24 50 35 13 12 49 40 79 63 116 86 327 296 364 362 5 9 22 30 37 47
36 39 140 197 186 283 19 37 42 76 49 87 8 11 14 27 14 37 0 10 4 18 9 18 5 0
11 10 14 22 3 13 17 52 32 87 15 36 29 72 30 80 2 9 4 17 5 19 2 1 3 5 4 10 1
4 11 36 23 72 12 36 25 83 29 105 3 22 9 44 12 50 3 5 7 18 8 30 3 24 10 60
18 95 12 52 29 227 30 315 0 28 5 53 11 57 7 5 7 8 0 8 -6 0 -11 34 -12 84 -1
46 -4 101 -8 122 -4 22 -8 57 -9 79 -2 22 -4 40 -5 40 -1 0 -4 18 -6 40 -3 32
-28 152 -49 235 -9 36 -39 128 -53 165 -27 69 -31 79 -48 120 -116 271 -330
584 -503 739 -13 12 -43 39 -66 61 -92 87 -291 237 -376 284 -86 46 -249 125
-307 147 -116 44 -335 106 -422 119 -14 2 -37 6 -51 9 -78 15 -404 38 -413 30z
m-2 -1417 c2 -280 -2 -297 -81 -337 -84 -41 -162 -25 -223 47 -66 78 -74 88
-90 113 -9 14 -22 32 -29 40 -27 33 -132 175 -132 180 0 7 72 52 144 89 60 32
185 79 233 87 15 3 30 7 33 9 4 3 34 7 66 11 32 3 61 8 63 10 12 12 15 -27 16
-249z m253 239 c4 -2 23 -7 42 -10 72 -11 178 -48 269 -93 89 -45 115 -67 94
-82 -5 -3 -19 -22 -30 -41 -12 -19 -30 -44 -41 -56 -11 -11 -30 -37 -43 -56
-89 -134 -165 -228 -194 -242 -89 -43 -216 7 -244 94 -9 28 -18 369 -12 478 1
22 3 22 77 17 42 -3 79 -7 82 -9z m590 -303 c79 -80 172 -200 172 -222 0 -5 3
-11 8 -13 9 -4 72 -145 72 -162 0 -14 -28 -26 -175 -71 -66 -20 -151 -47 -189
-60 -84 -28 -160 -28 -197 0 -44 33 -80 92 -86 140 -6 55 4 74 156 280 60 83
117 160 126 173 9 12 18 22 21 22 3 0 45 -39 92 -87z m-1327 -145 c129 -174
142 -196 142 -233 0 -118 -119 -202 -233 -165 -14 5 -72 23 -130 40 -58 18
-125 39 -150 47 -25 8 -51 16 -58 17 -7 1 -16 6 -21 12 -14 14 55 170 114 259
50 74 172 215 187 215 3 0 70 -86 149 -192z m1630 -435 c16 -96 16 -288 -1
-368 -7 -33 -13 -64 -14 -70 -10 -49 -19 -75 -27 -75 -9 0 -299 98 -349 118
-14 5 -28 10 -33 11 -31 4 -79 35 -101 64 -51 67 -42 202 17 240 19 12 83 37
112 43 11 2 204 64 295 94 87 29 85 30 101 -57z m-2040 41 c30 -9 63 -20 74
-24 41 -16 221 -72 245 -77 47 -8 92 -64 96 -118 1 -16 3 -34 4 -40 1 -5 1
-13 0 -17 -1 -5 -3 -11 -4 -15 -10 -57 -74 -117 -136 -130 -17 -3 -33 -10 -36
-14 -3 -5 -15 -9 -28 -9 -12 0 -26 -3 -30 -7 -3 -4 -16 -8 -28 -10 -12 -2 -25
-8 -29 -14 -3 -6 -10 -10 -15 -9 -14 2 -98 -22 -111 -33 -7 -5 -13 -7 -13 -3
0 3 -11 1 -24 -4 -26 -10 -29 -6 -40 50 -3 14 -8 36 -11 50 -23 104 -24 290
-1 395 3 11 5 26 5 33 1 16 18 15 82 -4z m1056 -38 c75 -39 133 -143 127 -226
-4 -53 -35 -120 -70 -154 -34 -33 -110 -70 -124 -61 -6 3 -10 3 -10 -2 0 -9
-66 -8 -95 2 -49 17 -65 25 -98 54 -147 129 -73 378 122 411 43 7 110 -4 148
-24z m-579 -479 c42 -28 81 -105 77 -151 -5 -48 -19 -72 -129 -221 -53 -71
-104 -141 -114 -155 l-19 -24 -80 80 c-89 89 -146 169 -204 282 -34 69 -37 78
-22 89 9 7 20 10 24 7 5 -3 9 0 9 5 0 6 8 11 18 11 9 0 89 25 177 55 174 58
205 61 263 22z m1102 4 c36 -12 70 -23 75 -25 6 -2 13 -4 17 -5 5 -1 34 -11
65 -22 64 -23 85 -30 93 -31 9 -1 135 -50 138 -53 4 -3 -81 -168 -96 -186 -6
-8 -33 -41 -60 -74 -45 -55 -106 -115 -174 -172 l-26 -21 -24 28 c-13 16 -72
100 -133 187 l-110 158 0 60 c0 51 5 66 30 102 26 36 63 65 87 67 3 1 9 4 13
8 9 8 25 5 105 -21z m-734 -274 c18 -15 37 -41 41 -58 5 -17 8 -112 7 -212 -3
-267 -1 -245 -26 -242 -75 9 -212 39 -256 57 -69 27 -176 80 -208 102 l-35 23
104 144 c58 79 121 161 141 181 62 64 155 66 232 5z m404 18 c12 -11 36 -40
53 -65 17 -25 35 -49 40 -55 32 -39 177 -251 177 -259 0 -9 -64 -46 -135 -77
-73 -32 -233 -68 -330 -75 l-71 -4 2 200 c2 226 6 254 37 292 52 64 178 87
227 43z"/>
</g>
</svg>
